<?xml version="1.0" standalone="no"?>
<!DOCTYPE svg PUBLIC "-//W3C//DTD SVG 20010904//EN"
 "http://www.w3.org/TR/2001/REC-SVG-20010904/DTD/svg10.dtd">
<svg version="1.0" xmlns="http://www.w3.org/2000/svg"
 width="300.000000pt" height="300.000000pt" viewBox="0 0 300.000000 300.000000"
 preserveAspectRatio="xMidYMid meet">

<g transform="translate(0.000000,300.000000) scale(0.100000,-0.100000)"
fill="#000000" stroke="none">
<path d="M591 2990 c-157 -33 -262 -91 -376 -205 -100 -99 -146 -175 -187
-305 -19 -63 -23 -95 -22 -205 0 -148 21 -228 89 -352 50 -90 178 -218 268
-268 124 -68 204 -89 352 -89 110 -1 142 3 205 22 130 41 206 87 305 187 100
99 146 175 187 305 33 108 33 292 0 400 -41 130 -87 206 -187 305 -98 99 -175
146 -300 185 -79 25 -260 35 -334 20z"/>
<path d="M2151 2990 c-157 -33 -262 -91 -376 -205 -100 -99 -146 -175 -187
-305 -33 -108 -33 -292 0 -400 41 -130 87 -206 187 -305 99 -100 175 -146 305
-187 62 -19 97 -23 200 -23 142 0 221 19 345 83 96 50 237 191 287 287 64 124
83 203 83 345 0 103 -4 138 -23 200 -41 130 -87 206 -187 305 -98 99 -175 146
-300 185 -79 25 -260 35 -334 20z"/>
<path d="M120 1320 l-124 -121 240 -240 239 -239 -240 -240 -240 -240 123
-122 122 -123 240 240 240 240 240 -240 240 -240 122 123 123 122 -240 240
-240 240 240 240 240 240 -123 122 -122 123 -240 -240 -240 -240 -238 238
-239 239 -123 -122z"/>
<path d="M1675 1320 l-120 -120 240 -240 240 -240 -240 -240 -240 -240 123
-122 122 -123 240 240 240 240 240 -240 240 -240 122 123 123 122 -240 240
-240 240 240 240 240 240 -123 122 -122 123 -240 -240 -240 -240 -238 238
c-130 130 -239 237 -242 237 -3 0 -59 -54 -125 -120z"/>
</g>
</svg>
